<svg xmlns="http://www.w3.org/2000/svg" viewBox="0 0 512 512" role="img" aria-label="Orange Bucket Admin">
  <defs>
    <linearGradient id="bg" x1="62" y1="54" x2="440" y2="466" gradientUnits="userSpaceOnUse">
      <stop offset="0" stop-color="#facc15"/>
      <stop offset="0.46" stop-color="#f97316"/>
      <stop offset="1" stop-color="#431407"/>
    </linearGradient>
    <linearGradient id="bucket" x1="138" y1="126" x2="374" y2="406" gradientUnits="userSpaceOnUse">
      <stop offset="0" stop-color="#fff7ed"/>
      <stop offset="1" stop-color="#fed7aa"/>
    </linearGradient>
  </defs>
  <rect width="512" height="512" rx="112" fill="url(#bg)"/>
  <ellipse cx="256" cy="162" rx="118" ry="44" fill="#fff7ed"/>
  <path d="M138 162v169c0 25 53 45 118 45s118-20 118-45V162" fill="url(#bucket)"/>
  <ellipse cx="256" cy="331" rx="118" ry="45" fill="#fdba74"/>
  <path d="M169 216c23 18 60 28 87 28s64-10 87-28" fill="none" stroke="#fb923c" stroke-width="18" stroke-linecap="round" opacity="0.95"/>
  <path d="M188 278c18 14 48 22 68 22s50-8 68-22" fill="none" stroke="#ea580c" stroke-width="16" stroke-linecap="round" opacity="0.8"/>
  <text x="256" y="307" text-anchor="middle" font-family="Inter,Arial,sans-serif" font-size="96" font-weight="900" fill="#7c2d12">S3</text>
  <text x="256" y="434" text-anchor="middle" font-family="Inter,Arial,sans-serif" font-size="42" font-weight="800" fill="#fff7ed">PROXY</text>
</svg>
